<?xml version="1.0" encoding="utf-8"?>
<!-- Generator: Adobe Illustrator 25.2.1, SVG Export Plug-In . SVG Version: 6.00 Build 0)  -->
<svg version="1.0" id="Layer_1" xmlns="http://www.w3.org/2000/svg" xmlns:xlink="http://www.w3.org/1999/xlink" x="0px" y="0px"
	 viewBox="0 0 200 50" style="enable-background:new 0 0 200 50;" xml:space="preserve">
<style type="text/css">
	.st0{fill:#F7DD15;}
	.st1{fill:#0A0005;}
</style>
<path class="st0" d="M175,50H25C11.2,50,0,38.8,0,25v0C0,11.2,11.2,0,25,0h150c13.7,0,25,11.2,25,25v0C200,38.8,188.8,50,175,50z"/>
<g>
	<path class="st1" d="M31.6,15.9h8.7v2.4H34v3.8h4.9v2.4H34v6.4h-2.4V15.9z"/>
	<path class="st1" d="M42.2,18.3c-0.3-0.3-0.4-0.6-0.4-1c0-0.4,0.2-0.8,0.5-1.1c0.3-0.3,0.7-0.5,1.1-0.5s0.8,0.2,1.1,0.5
		c0.3,0.3,0.5,0.7,0.5,1.1c0,0.4-0.1,0.7-0.4,1H42.2z M42.2,20.3h2.3v10.5h-2.3V20.3z"/>
	<path class="st1" d="M47.4,20.3h2.3v1c0.4-0.4,0.8-0.7,1.3-0.9c0.5-0.2,1.1-0.3,1.6-0.3c0.6,0,1.2,0.1,1.8,0.3
		c0.5,0.2,1,0.5,1.3,0.9c0.4,0.4,0.6,0.9,0.9,1.4c0.2,0.6,0.3,1.2,0.3,1.8v6.2h-2.3v-6.1c0-0.3-0.1-0.6-0.2-0.8
		c-0.1-0.3-0.3-0.5-0.5-0.8c-0.2-0.2-0.5-0.4-0.7-0.5c-0.3-0.1-0.6-0.2-1-0.2c-0.6,0-1.1,0.2-1.5,0.5c-0.4,0.3-0.8,0.8-1,1.4v6.6
		h-2.3V20.3z"/>
	<path class="st1" d="M67.2,30.1c-0.4,0.3-0.8,0.5-1.3,0.7c-0.5,0.2-1,0.2-1.6,0.2c-0.8,0-1.5-0.1-2.2-0.4c-0.7-0.3-1.2-0.7-1.7-1.1
		c-0.5-0.5-0.9-1.1-1.1-1.7S59,26.3,59,25.6s0.1-1.5,0.4-2.1c0.3-0.7,0.6-1.2,1.1-1.7c0.5-0.5,1-0.9,1.7-1.1
		c0.7-0.3,1.4-0.4,2.2-0.4c0.6,0,1.1,0.1,1.6,0.3c0.5,0.2,0.9,0.4,1.3,0.7v-5.2h2.3v14.9h-2.3V30.1z M64.5,28.8
		c0.6,0,1.1-0.1,1.6-0.4c0.5-0.3,0.9-0.6,1.2-1v-3.6c-0.3-0.4-0.7-0.8-1.2-1c-0.5-0.3-1-0.4-1.6-0.4c-0.4,0-0.9,0.1-1.2,0.2
		c-0.4,0.2-0.7,0.4-1,0.7s-0.5,0.6-0.6,1s-0.2,0.8-0.2,1.3c0,0.5,0.1,0.9,0.2,1.3c0.1,0.4,0.4,0.7,0.6,1s0.6,0.5,1,0.7
		C63.6,28.7,64,28.8,64.5,28.8z"/>
	<path class="st1" d="M84.9,30.1c-0.4,0.3-0.8,0.5-1.3,0.7c-0.5,0.2-1,0.2-1.6,0.2c-0.8,0-1.5-0.1-2.2-0.4c-0.7-0.3-1.2-0.7-1.7-1.1
		c-0.5-0.5-0.9-1.1-1.1-1.7s-0.4-1.4-0.4-2.1s0.1-1.5,0.4-2.1c0.3-0.7,0.6-1.2,1.1-1.7c0.5-0.5,1-0.9,1.7-1.1
		c0.7-0.3,1.4-0.4,2.2-0.4c0.6,0,1.1,0.1,1.6,0.3c0.5,0.2,0.9,0.4,1.3,0.7v-0.8h2.3v10.5h-2.3V30.1z M82.1,28.8
		c0.6,0,1.1-0.1,1.6-0.4c0.5-0.3,0.9-0.6,1.2-1v-3.6c-0.3-0.4-0.7-0.8-1.2-1c-0.5-0.3-1-0.4-1.6-0.4c-0.4,0-0.9,0.1-1.2,0.2
		c-0.4,0.2-0.7,0.4-1,0.7s-0.5,0.6-0.6,1s-0.2,0.8-0.2,1.3c0,0.5,0.1,0.9,0.2,1.3c0.1,0.4,0.4,0.7,0.6,1s0.6,0.5,1,0.7
		C81.3,28.7,81.7,28.8,82.1,28.8z"/>
	<path class="st1" d="M95,15.9h2.3v14.9H95V15.9z"/>
	<path class="st1" d="M105,31c-0.8,0-1.5-0.1-2.2-0.4c-0.7-0.3-1.2-0.7-1.7-1.1c-0.5-0.5-0.9-1.1-1.1-1.7s-0.4-1.4-0.4-2.1
		s0.1-1.5,0.4-2.1c0.3-0.7,0.7-1.2,1.1-1.7c0.5-0.5,1.1-0.9,1.7-1.1c0.7-0.3,1.4-0.4,2.2-0.4c0.8,0,1.5,0.1,2.2,0.4
		c0.7,0.3,1.2,0.7,1.7,1.1s0.9,1.1,1.1,1.7c0.3,0.7,0.4,1.4,0.4,2.1s-0.1,1.5-0.4,2.1c-0.3,0.7-0.7,1.2-1.1,1.7
		c-0.5,0.5-1.1,0.9-1.7,1.1C106.5,30.8,105.8,31,105,31z M105,28.8c0.4,0,0.9-0.1,1.2-0.2c0.4-0.2,0.7-0.4,1-0.7
		c0.3-0.3,0.5-0.6,0.6-1c0.2-0.4,0.2-0.8,0.2-1.3c0-0.5-0.1-0.9-0.2-1.3c-0.2-0.4-0.4-0.7-0.6-1c-0.3-0.3-0.6-0.5-1-0.7
		c-0.4-0.2-0.8-0.2-1.2-0.2c-0.4,0-0.9,0.1-1.2,0.2c-0.4,0.2-0.7,0.4-1,0.7s-0.5,0.6-0.6,1s-0.2,0.8-0.2,1.3c0,0.5,0.1,0.9,0.2,1.3
		c0.1,0.4,0.4,0.7,0.6,1s0.6,0.5,1,0.7C104.2,28.7,104.6,28.8,105,28.8z"/>
	<path class="st1" d="M117.6,31c-0.8,0-1.5-0.1-2.2-0.4c-0.7-0.3-1.2-0.7-1.7-1.1c-0.5-0.5-0.9-1.1-1.1-1.7
		c-0.3-0.7-0.4-1.4-0.4-2.1s0.1-1.5,0.4-2.1c0.3-0.7,0.7-1.2,1.1-1.7c0.5-0.5,1.1-0.9,1.7-1.1c0.7-0.3,1.4-0.4,2.2-0.4
		c0.8,0,1.6,0.2,2.3,0.5c0.7,0.3,1.3,0.7,1.7,1.3l-1.6,1.6c-0.3-0.3-0.6-0.6-1-0.8c-0.4-0.2-0.9-0.3-1.4-0.3c-0.4,0-0.9,0.1-1.2,0.2
		c-0.4,0.2-0.7,0.4-1,0.7c-0.3,0.3-0.5,0.6-0.6,1c-0.1,0.4-0.2,0.8-0.2,1.3c0,0.5,0.1,0.9,0.2,1.3c0.1,0.4,0.4,0.7,0.6,1
		c0.3,0.3,0.6,0.5,1,0.7c0.4,0.2,0.8,0.2,1.2,0.2c0.5,0,1-0.1,1.4-0.3c0.4-0.2,0.7-0.5,1-0.8l1.6,1.6c-0.5,0.5-1.1,1-1.7,1.3
		C119.2,30.8,118.4,31,117.6,31z"/>
	<path class="st1" d="M130.9,30.1c-0.4,0.3-0.8,0.5-1.3,0.7c-0.5,0.2-1,0.2-1.6,0.2c-0.8,0-1.5-0.1-2.2-0.4
		c-0.7-0.3-1.2-0.7-1.7-1.1c-0.5-0.5-0.9-1.1-1.1-1.7c-0.3-0.7-0.4-1.4-0.4-2.1s0.1-1.5,0.4-2.1c0.3-0.7,0.6-1.2,1.1-1.7
		c0.5-0.5,1-0.9,1.7-1.1c0.7-0.3,1.4-0.4,2.2-0.4c0.6,0,1.1,0.1,1.6,0.3c0.5,0.2,0.9,0.4,1.3,0.7v-0.8h2.3v10.5h-2.3V30.1z
		 M128.1,28.8c0.6,0,1.1-0.1,1.6-0.4c0.5-0.3,0.9-0.6,1.2-1v-3.6c-0.3-0.4-0.7-0.8-1.2-1c-0.5-0.3-1-0.4-1.6-0.4
		c-0.4,0-0.9,0.1-1.2,0.2c-0.4,0.2-0.7,0.4-1,0.7s-0.5,0.6-0.6,1c-0.1,0.4-0.2,0.8-0.2,1.3c0,0.5,0.1,0.9,0.2,1.3
		c0.1,0.4,0.4,0.7,0.6,1s0.6,0.5,1,0.7C127.2,28.7,127.6,28.8,128.1,28.8z"/>
	<path class="st1" d="M134.6,20.3h2v-2l2.3-1.1v3.1h3.2l-0.5,2.1h-2.7v4.8c0,0.5,0.1,0.9,0.3,1.2c0.2,0.3,0.6,0.4,1.2,0.4h1.4v2.1
		h-2c-1,0-1.8-0.3-2.4-0.8c-0.6-0.6-0.9-1.3-0.9-2.4v-5.2h-1.5L134.6,20.3z"/>
	<path class="st1" d="M144.2,18.3c-0.3-0.3-0.4-0.6-0.4-1c0-0.4,0.2-0.8,0.5-1.1c0.3-0.3,0.7-0.5,1.1-0.5s0.8,0.2,1.1,0.5
		c0.3,0.3,0.5,0.7,0.5,1.1c0,0.4-0.1,0.7-0.4,1H144.2z M144.2,20.3h2.3v10.5h-2.3V20.3z"/>
	<path class="st1" d="M154.3,31c-0.8,0-1.5-0.1-2.2-0.4c-0.7-0.3-1.2-0.7-1.7-1.1c-0.5-0.5-0.9-1.1-1.1-1.7
		c-0.3-0.7-0.4-1.4-0.4-2.1s0.1-1.5,0.4-2.1c0.3-0.7,0.7-1.2,1.1-1.7c0.5-0.5,1.1-0.9,1.7-1.1c0.7-0.3,1.4-0.4,2.2-0.4
		c0.8,0,1.5,0.1,2.2,0.4c0.7,0.3,1.2,0.7,1.7,1.1s0.9,1.1,1.1,1.7c0.3,0.7,0.4,1.4,0.4,2.1s-0.1,1.5-0.4,2.1
		c-0.3,0.7-0.7,1.2-1.1,1.7c-0.5,0.5-1.1,0.9-1.7,1.1C155.7,30.8,155,31,154.3,31z M154.3,28.8c0.4,0,0.9-0.1,1.2-0.2
		c0.4-0.2,0.7-0.4,1-0.7c0.3-0.3,0.5-0.6,0.6-1c0.2-0.4,0.2-0.8,0.2-1.3c0-0.5-0.1-0.9-0.2-1.3c-0.2-0.4-0.4-0.7-0.6-1
		c-0.3-0.3-0.6-0.5-1-0.7c-0.4-0.2-0.8-0.2-1.2-0.2c-0.4,0-0.9,0.1-1.2,0.2c-0.4,0.2-0.7,0.4-1,0.7s-0.5,0.6-0.6,1
		c-0.1,0.4-0.2,0.8-0.2,1.3c0,0.5,0.1,0.9,0.2,1.3c0.1,0.4,0.4,0.7,0.6,1s0.6,0.5,1,0.7C153.4,28.7,153.8,28.8,154.3,28.8z"/>
	<path class="st1" d="M162,20.3h2.3v1c0.4-0.4,0.8-0.7,1.3-0.9c0.5-0.2,1.1-0.3,1.6-0.3c0.6,0,1.2,0.1,1.8,0.3
		c0.5,0.2,1,0.5,1.3,0.9c0.4,0.4,0.6,0.9,0.9,1.4c0.2,0.6,0.3,1.2,0.3,1.8v6.2h-2.3v-6.1c0-0.3-0.1-0.6-0.2-0.8
		c-0.1-0.3-0.3-0.5-0.5-0.8c-0.2-0.2-0.5-0.4-0.7-0.5c-0.3-0.1-0.6-0.2-1-0.2c-0.6,0-1.1,0.2-1.5,0.5c-0.4,0.3-0.8,0.8-1,1.4v6.6
		H162V20.3z"/>
</g>
</svg>
